<?xml version="1.0" encoding="UTF-8" standalone="no"?>
<svg
   viewBox="0 0 1126.7679 744.01068"
   height="744.01068"
   width="1126.7679"
   xml:space="preserve"
   id="svg2"
   version="1.1"
   sodipodi:docname="COSTACLIMA-V3-LOGO.svg"
   inkscape:version="1.2.2 (732a01da63, 2022-12-09)"
   xmlns:inkscape="http://www.inkscape.org/namespaces/inkscape"
   xmlns:sodipodi="http://sodipodi.sourceforge.net/DTD/sodipodi-0.dtd"
   xmlns="http://www.w3.org/2000/svg"
   xmlns:svg="http://www.w3.org/2000/svg"
   xmlns:rdf="http://www.w3.org/1999/02/22-rdf-syntax-ns#"
   xmlns:cc="http://creativecommons.org/ns#"
   xmlns:dc="http://purl.org/dc/elements/1.1/"><sodipodi:namedview
     id="namedview156"
     pagecolor="#ffffff"
     bordercolor="#000000"
     borderopacity="0.25"
     inkscape:showpageshadow="2"
     inkscape:pageopacity="0.0"
     inkscape:pagecheckerboard="0"
     inkscape:deskcolor="#d1d1d1"
     showgrid="false"
     inkscape:zoom="0.53693398"
     inkscape:cx="345.48009"
     inkscape:cy="366.89799"
     inkscape:window-width="1920"
     inkscape:window-height="1009"
     inkscape:window-x="-8"
     inkscape:window-y="-8"
     inkscape:window-maximized="1"
     inkscape:current-layer="g3363" /><metadata
     id="metadata8"><rdf:RDF><cc:Work
         rdf:about=""><dc:format>image/svg+xml</dc:format><dc:type
           rdf:resource="http://purl.org/dc/dcmitype/StillImage" /></cc:Work></rdf:RDF></metadata><defs
     id="defs6"><linearGradient
       id="linearGradient30"
       spreadMethod="pad"
       gradientTransform="matrix(-3.6e-6,-82.972168,-82.972168,3.6e-6,150.79834,159.93066)"
       gradientUnits="userSpaceOnUse"
       y2="0"
       x2="1"
       y1="0"
       x1="0"><stop
         id="stop24"
         offset="0"
         style="stop-opacity:1;stop-color:#f8dc2c" /><stop
         id="stop26"
         offset="0.525974"
         style="stop-opacity:1;stop-color:#db4c1b" /><stop
         id="stop28"
         offset="1"
         style="stop-opacity:1;stop-color:#9f1b15" /></linearGradient><clipPath
       id="clipPath40"
       clipPathUnits="userSpaceOnUse"><path
         id="path38"
         d="M 0,558.008 H 845.076 V 0 H 0 Z" /></clipPath><linearGradient
       id="linearGradient64"
       spreadMethod="pad"
       gradientTransform="matrix(-3.6e-6,-82.972168,-82.972168,3.6e-6,127.60986,159.93066)"
       gradientUnits="userSpaceOnUse"
       y2="0"
       x2="1"
       y1="0"
       x1="0"><stop
         id="stop58"
         offset="0"
         style="stop-opacity:1;stop-color:#0a4791" /><stop
         id="stop60"
         offset="0.464286"
         style="stop-opacity:1;stop-color:#2466b6" /><stop
         id="stop62"
         offset="1"
         style="stop-opacity:1;stop-color:#59b2f0" /></linearGradient><clipPath
       id="clipPath74"
       clipPathUnits="userSpaceOnUse"><path
         id="path72"
         d="M 0,558.008 H 845.076 V 0 H 0 Z" /></clipPath><linearGradient
       id="linearGradient110"
       spreadMethod="pad"
       gradientTransform="matrix(-3.6e-6,-82.97168,-82.97168,3.6e-6,437.58301,442.81934)"
       gradientUnits="userSpaceOnUse"
       y2="0"
       x2="1"
       y1="0"
       x1="0"><stop
         id="stop104"
         offset="0"
         style="stop-opacity:1;stop-color:#f8dc2c" /><stop
         id="stop106"
         offset="0.525974"
         style="stop-opacity:1;stop-color:#db4c1b" /><stop
         id="stop108"
         offset="1"
         style="stop-opacity:1;stop-color:#9f1b15" /></linearGradient><clipPath
       id="clipPath120"
       clipPathUnits="userSpaceOnUse"><path
         id="path118"
         d="M 0,558.008 H 845.076 V 0 H 0 Z" /></clipPath><linearGradient
       id="linearGradient144"
       spreadMethod="pad"
       gradientTransform="matrix(-3.6e-6,-82.972168,-82.972168,3.6e-6,414.39404,442.81934)"
       gradientUnits="userSpaceOnUse"
       y2="0"
       x2="1"
       y1="0"
       x1="0"><stop
         id="stop138"
         offset="0"
         style="stop-opacity:1;stop-color:#0a4791" /><stop
         id="stop140"
         offset="0.464286"
         style="stop-opacity:1;stop-color:#2466b6" /><stop
         id="stop142"
         offset="1"
         style="stop-opacity:1;stop-color:#59b2f0" /></linearGradient><clipPath
       id="clipPath154"
       clipPathUnits="userSpaceOnUse"><path
         id="path152"
         d="M 0,558.008 H 845.076 V 0 H 0 Z" /></clipPath></defs><g
     id="g706"
     transform="translate(9.3121323,545.69092)"><g
       transform="matrix(1.3333333,0,0,-1.3333333,-4.6560657,228.11853)"
       id="g10"><g
         id="g3363"
         transform="matrix(2.9068142,0,0,2.9068142,-777.85945,-869.08779)"><g
           id="g362"
           transform="matrix(1.0786093,0,0,1.0786093,-46.130138,-16.41262)"><g
             id="g92"><g
               id="g94"><g
                 id="g100"><g
                   id="g102"><path
                     id="path112"
                     style="fill:url(#linearGradient110);stroke:none"
                     d="m 413.707,442.8 c -0.027,-0.057 0,-0.257 0.809,-4.579 v 0 c 0.807,-4.322 2.394,-12.765 3.187,-16.985 v 0 c 0.794,-4.222 0.794,-4.222 1.233,-3.32 v 0 c 0.439,0.901 1.318,2.704 1.771,3.563 v 0 c 0.454,0.859 0.482,0.772 2.552,-1.403 v 0 c 2.069,-2.175 6.178,-6.439 9.792,-10.202 v 0 c 3.613,-3.763 6.73,-7.027 9.097,-10.404 v 0 c 2.366,-3.376 3.982,-6.868 4.947,-9.945 v 0 c 0.963,-3.077 1.273,-5.737 1.402,-8.227 v 0 c 0.127,-2.491 0.07,-4.809 -0.496,-7.284 v 0 c -0.566,-2.475 -1.644,-5.109 -3.231,-7.599 v 0 c -1.588,-2.489 -3.685,-4.836 -4.606,-5.909 v 0 c -0.921,-1.073 -0.666,-0.873 1.262,0.887 v 0 c 1.927,1.76 5.526,5.08 8.7,8.857 v 0 c 3.173,3.777 5.924,8.014 7.922,12.236 v 0 c 1.998,4.221 3.244,8.427 3.4,12.391 v 0 c 0.157,3.963 -0.779,7.685 -2.041,11.062 v 0 c -1.259,3.376 -2.848,6.41 -5.312,9.644 v 0 c -2.467,3.234 -5.81,6.668 -9.778,10.575 v 0 c -3.969,3.906 -8.559,8.285 -10.841,10.461 v 0 c -2.282,2.174 -2.254,2.145 -1.544,2.833 v 0 c 0.708,0.687 2.097,2.089 2.522,2.747 v 0 c 0.425,0.659 -0.114,0.572 -3.699,0.53 v 0 c -3.585,-0.043 -10.218,-0.043 -13.575,0 v 0 c -2.564,0.032 -3.221,0.09 -3.4,0.09 v 0 c -0.056,0 -0.066,-0.005 -0.073,-0.019" /></g></g></g></g><g
             id="g114"><g
               clip-path="url(#clipPath120)"
               id="g116"><g
                 transform="translate(421.1621,422.2358)"
                 id="g122"><path
                   id="path124"
                   style="fill:#050043;fill-opacity:1;fill-rule:evenodd;stroke:none"
                   d="m 0,0 c 0.39,0 0.771,-0.402 2.037,-1.734 l 0.24,-0.253 C 3.703,-3.485 6.097,-5.976 8.63,-8.61 l 3.439,-3.579 c 3.447,-3.59 6.702,-6.98 9.121,-10.433 2.754,-3.93 4.229,-7.615 4.981,-10.014 1.047,-3.345 1.305,-6.187 1.414,-8.29 0.15,-2.956 0,-5.155 -0.502,-7.351 -0.6,-2.612 -1.727,-5.266 -3.264,-7.678 -0.943,-1.48 -2.076,-2.92 -3.026,-4.064 1.849,1.701 5.104,4.772 7.979,8.194 3.178,3.781 5.905,7.992 7.887,12.181 2.094,4.425 3.231,8.561 3.377,12.295 0.133,3.373 -0.529,6.959 -2.025,10.964 -1.344,3.601 -2.973,6.556 -5.278,9.581 -2.396,3.143 -5.632,6.49 -9.754,10.548 -4.039,3.976 -8.803,8.518 -10.837,10.458 -1.574,1.499 -2.045,1.949 -2.047,2.406 -0.001,0.301 0.208,0.504 0.473,0.762 0.763,0.738 2.114,2.11 2.514,2.729 0.03,0.047 0.05,0.082 0.063,0.107 -0.223,0.065 -0.89,0.065 -1.124,0.065 -0.369,0 -0.823,-0.006 -1.376,-0.014 L 9.596,20.243 C 7.803,20.221 5.247,20.21 2.72,20.21 c -2.659,0 -5.105,0.012 -6.706,0.033 -1.964,0.025 -2.819,0.065 -3.183,0.082 -0.006,0 -0.012,0.001 -0.018,0.001 0.071,-0.456 0.303,-1.711 0.786,-4.295 0.807,-4.322 2.394,-12.764 3.188,-16.985 0.324,-1.726 0.546,-2.907 0.691,-3.402 0.024,0.048 0.048,0.098 0.072,0.145 0.391,0.805 1.309,2.69 1.774,3.571 C -0.502,-0.311 -0.338,0 0,0 m 18.497,-62.638 h -0.003 -0.161 l -0.072,0.148 c -0.081,0.177 -0.021,0.256 0.551,0.923 l 0.323,0.373 c 0.996,1.15 2.848,3.291 4.262,5.508 1.506,2.363 2.612,4.964 3.198,7.52 0.492,2.15 0.638,4.308 0.49,7.215 -0.106,2.073 -0.361,4.874 -1.393,8.166 -0.74,2.365 -2.193,5.998 -4.91,9.876 -2.398,3.422 -5.64,6.798 -9.073,10.373 l -3.44,3.579 c -2.534,2.636 -4.928,5.126 -6.354,6.625 l -0.24,0.253 C 0.804,-1.162 0.175,-0.5 0,-0.5 -0.05,-0.526 -0.174,-0.761 -0.233,-0.874 -0.694,-1.747 -1.61,-3.627 -2.001,-4.43 -2.189,-4.816 -2.304,-5.05 -2.55,-5.05 c -0.402,0 -0.459,0.302 -1.154,4.004 -0.794,4.221 -2.381,12.664 -3.189,16.985 -0.857,4.591 -0.857,4.591 -0.786,4.736 0.079,0.158 0.242,0.158 0.296,0.158 0.045,0 0.117,-0.003 0.237,-0.008 0.362,-0.017 1.21,-0.057 3.167,-0.082 1.599,-0.021 4.041,-0.033 6.699,-0.033 2.525,0 5.078,0.011 6.87,0.033 l 1.048,0.014 c 2.127,0.03 2.777,0.063 2.979,-0.309 0.131,-0.239 -0.035,-0.496 -0.115,-0.62 -0.523,-0.808 -2.352,-2.591 -2.559,-2.792 -0.207,-0.2 -0.349,-0.338 -0.348,-0.426 10e-4,-0.244 0.669,-0.881 1.883,-2.038 2.043,-1.948 6.81,-6.492 10.851,-10.471 4.137,-4.074 7.387,-7.435 9.801,-10.602 2.338,-3.066 3.988,-6.06 5.349,-9.709 1.52,-4.068 2.192,-7.718 2.057,-11.159 -0.15,-3.801 -1.303,-8.003 -3.424,-12.488 -2.002,-4.227 -4.754,-8.477 -7.957,-12.289 -3.304,-3.935 -7.102,-7.401 -8.723,-8.881 -1.748,-1.598 -1.79,-1.611 -1.935,-1.611" /></g></g></g><g
             id="g126"><g
               id="g128"><g
                 id="g134"><g
                   id="g136"><path
                     id="path146"
                     style="fill:url(#linearGradient144);stroke:none"
                     d="m 410.551,441.274 c -1.927,-1.76 -5.526,-5.08 -8.7,-8.858 v 0 c -3.174,-3.778 -5.923,-8.014 -7.921,-12.235 v 0 c -1.998,-4.221 -3.245,-8.428 -3.401,-12.392 v 0 c -0.156,-3.963 0.779,-7.684 2.04,-11.061 v 0 c 1.262,-3.378 2.849,-6.412 5.314,-9.644 v 0 c 2.466,-3.235 5.81,-6.669 9.777,-10.575 v 0 c 3.969,-3.907 8.559,-8.286 10.841,-10.461 v 0 c 2.281,-2.175 2.253,-2.147 1.545,-2.833 v 0 c -0.709,-0.687 -2.098,-2.089 -2.523,-2.748 v 0 c -0.424,-0.658 0.114,-0.572 3.699,-0.529 v 0 c 3.585,0.043 10.217,0.043 13.576,0 v 0 c 3.358,-0.043 3.443,-0.129 3.471,-0.072 v 0 c 0.029,0.057 0,0.258 -0.807,4.579 v 0 c -0.808,4.322 -2.395,12.765 -3.189,16.986 v 0 c -0.793,4.221 -0.793,4.221 -1.232,3.32 v 0 c -0.44,-0.902 -1.318,-2.705 -1.772,-3.563 v 0 c -0.453,-0.859 -0.482,-0.773 -2.551,1.402 v 0 c -2.068,2.175 -6.178,6.439 -9.792,10.203 v 0 c -3.614,3.763 -6.731,7.026 -9.098,10.402 v 0 c -2.366,3.377 -3.981,6.869 -4.945,9.946 v 0 c -0.964,3.077 -1.275,5.739 -1.403,8.227 v 0 c -0.127,2.491 -0.071,4.809 0.496,7.284 v 0 c 0.568,2.476 1.645,5.109 3.232,7.599 v 0 c 1.586,2.49 3.684,4.836 4.605,5.91 v 0 c 0.371,0.433 0.551,0.658 0.508,0.658 v 0 c -0.064,10e-4 -0.619,-0.494 -1.77,-1.545" /></g></g></g></g><g
             id="g148"><g
               clip-path="url(#clipPath154)"
               id="g150"><g
                 transform="translate(428.0947,360.2202)"
                 id="g156"><path
                   id="path158"
                   style="fill:#050043;fill-opacity:1;fill-rule:evenodd;stroke:none"
                   d="m 0,0 c 2.66,0 5.104,-0.012 6.706,-0.032 1.964,-0.026 2.818,-0.066 3.184,-0.083 0.006,0 0.011,0 0.016,-0.001 C 9.836,0.341 9.604,1.596 9.121,4.179 8.313,8.501 6.727,16.943 5.933,21.165 5.608,22.89 5.387,24.07 5.242,24.566 5.218,24.518 5.193,24.468 5.171,24.421 4.689,23.433 3.842,21.695 3.396,20.851 3.222,20.521 3.058,20.21 2.719,20.21 c -0.388,0 -0.77,0.402 -2.036,1.735 l -0.241,0.253 c -1.429,1.503 -3.835,4.005 -6.378,6.65 l -3.413,3.551 c -3.447,3.59 -6.701,6.98 -9.121,10.433 -2.755,3.93 -4.229,7.615 -4.98,10.014 -1.048,3.344 -1.306,6.187 -1.414,8.29 -0.151,2.958 -10e-4,5.157 0.502,7.352 0.599,2.612 1.727,5.266 3.264,7.677 0.943,1.481 2.078,2.924 3.028,4.067 -1.849,-1.701 -5.108,-4.776 -7.982,-8.197 -3.178,-3.782 -5.905,-7.994 -7.887,-12.181 -2.094,-4.424 -3.23,-8.561 -3.377,-12.295 -0.133,-3.374 0.53,-6.96 2.025,-10.964 1.345,-3.602 2.973,-6.557 5.278,-9.58 2.398,-3.146 5.634,-6.492 9.755,-10.549 4.024,-3.963 8.625,-8.349 10.836,-10.457 C -7.849,4.51 -7.376,4.059 -7.374,3.602 -7.373,3.301 -7.583,3.098 -7.849,2.84 -8.61,2.102 -9.962,0.73 -10.361,0.111 c -0.032,-0.047 -0.05,-0.082 -0.063,-0.107 0.223,-0.065 0.889,-0.065 1.123,-0.065 0.368,0 0.822,0.006 1.376,0.015 l 1.049,0.014 C -5.082,-0.011 -2.527,0 0,0 m 10.103,-0.623 c -0.044,0 -0.117,0.003 -0.237,0.009 C 9.504,-0.597 8.655,-0.557 6.699,-0.532 5.1,-0.512 2.657,-0.5 0,-0.5 c -2.524,0 -5.078,-0.011 -6.87,-0.032 l -1.048,-0.014 c -2.128,-0.033 -2.775,-0.064 -2.979,0.308 -0.13,0.239 0.036,0.497 0.116,0.621 0.521,0.808 2.351,2.591 2.558,2.791 0.206,0.2 0.349,0.338 0.349,0.426 -0.001,0.244 -0.671,0.882 -1.886,2.041 -2.219,2.115 -6.822,6.504 -10.849,10.469 -4.136,4.072 -7.386,7.432 -9.802,10.602 -2.336,3.063 -3.985,6.058 -5.349,9.708 -1.518,4.067 -2.191,7.717 -2.056,11.159 0.149,3.801 1.302,8.004 3.425,12.489 2,4.225 4.751,8.474 7.956,12.288 3.302,3.931 7.101,7.401 8.724,8.882 1.763,1.611 1.79,1.611 1.937,1.611 h 0.16 l 0.072,-0.148 c 0.082,-0.177 0.022,-0.256 -0.55,-0.923 l -0.329,-0.382 c -0.995,-1.148 -2.846,-3.288 -4.255,-5.5 -1.507,-2.363 -2.613,-4.963 -3.199,-7.52 -0.492,-2.147 -0.638,-4.305 -0.49,-7.215 0.107,-2.073 0.362,-4.874 1.393,-8.165 0.74,-2.366 2.193,-5.999 4.911,-9.877 2.397,-3.421 5.64,-6.798 9.073,-10.373 l 3.414,-3.552 c 2.543,-2.645 4.948,-5.148 6.379,-6.652 l 0.24,-0.253 c 0.871,-0.916 1.5,-1.579 1.674,-1.579 0.051,0.026 0.175,0.261 0.234,0.374 0.443,0.838 1.288,2.57 1.741,3.501 0.215,0.441 0.329,0.675 0.576,0.675 0.402,0 0.459,-0.302 1.154,-4.003 0.794,-4.222 2.381,-12.664 3.188,-16.986 0.859,-4.59 0.859,-4.59 0.786,-4.735 -0.078,-0.159 -0.242,-0.159 -0.295,-0.159" /></g><g
                 transform="translate(364.0483,402.5605)"
                 id="g160"><path
                   id="path162"
                   style="fill:#050043;fill-opacity:1;fill-rule:evenodd;stroke:none"
                   d="m 0,0 c -0.045,-8.53 0.041,-25.679 0.084,-34.297 0.043,-8.618 0.043,-8.705 0.453,-8.748 0.409,-0.044 1.228,-0.044 3.814,-0.044 2.586,0 6.94,0 9.159,0.044 2.22,0.043 2.306,0.13 2.306,10.794 0,10.663 -0.086,31.903 -0.108,42.588 -0.021,10.686 0.022,10.816 0.302,11.012 0.28,0.196 0.798,0.457 8.448,6.573 7.65,6.115 22.435,18.084 29.89,24.069 7.457,5.985 7.587,5.985 7.78,5.876 0.195,-0.109 0.454,-0.326 7.802,-6.181 7.35,-5.854 21.788,-17.344 29.073,-23.133 7.284,-5.789 7.413,-5.876 7.477,-6.094 0.064,-0.217 0.064,-0.565 0.086,-11.512 0.023,-10.947 0.066,-32.491 0.109,-43.198 0.043,-10.707 0.086,-10.577 0.237,-10.534 0.15,0.044 0.41,0 2.908,-0.021 2.5,-0.022 7.242,-0.022 9.656,-0.022 2.412,0 2.5,0 2.565,0.283 0.064,0.283 0.107,0.849 0.042,9.641 -0.064,8.792 -0.238,25.81 -0.281,34.384 -0.043,8.575 0.043,8.706 0.539,8.488 0.496,-0.218 1.401,-0.784 2.414,-1.328 1.014,-0.544 2.133,-1.066 2.996,-1.371 0.862,-0.305 1.465,-0.392 2.866,1.088 1.4,1.48 3.599,4.527 4.654,6.42 1.057,1.893 0.971,2.633 0.691,3.308 -0.281,0.675 -0.755,1.284 -5.798,5.353 -5.041,4.07 -14.655,11.6 -19.481,15.43 -4.828,3.831 -4.871,3.961 -4.892,8.314 -0.022,4.352 -0.022,12.926 -0.172,17.366 -0.151,4.44 -0.453,4.744 -1.207,5.223 -0.754,0.479 -1.961,1.132 -4.204,1.436 -2.24,0.305 -5.515,0.261 -7.564,-0.326 -2.047,-0.588 -2.865,-1.719 -3.254,-3.026 -0.387,-1.305 -0.344,-2.785 -0.301,-4.896 0.043,-2.111 0.086,-4.853 0.022,-6.137 -0.065,-1.284 -0.236,-1.11 -3.922,1.85 -3.686,2.96 -10.884,8.705 -15.043,11.969 -4.16,3.265 -5.28,4.048 -6.703,4.375 -1.422,0.326 -3.146,0.195 -4.461,-0.283 C 57.667,74.254 56.762,73.427 45.232,64.308 33.703,55.19 11.549,37.78 0.343,28.814 -10.863,19.848 -11.122,19.325 -11.402,18.629 c -0.28,-0.696 -0.582,-1.567 -0.625,-2.525 -0.043,-0.957 0.173,-2.001 1.25,-3.547 1.077,-1.545 3.017,-3.591 4.289,-4.592 1.271,-1.001 1.874,-0.957 2.435,-0.827 0.56,0.131 1.077,0.349 1.812,0.566 0.735,0.217 1.687,0.433 2.075,0.586 C 0.222,8.442 0.045,8.53 0,0" /></g><g
                 transform="translate(543.6836,324.1724)"
                 id="g164"><path
                   id="path166"
                   style="fill:#050043;fill-opacity:1;fill-rule:nonzero;stroke:none"
                   d="M 0,0 -4.084,8.575 H -4.312 L -8.396,0 Z M 8.396,-7.688 H 4.579 c -0.572,0 -1.03,0.295 -1.144,0.591 l -1.718,3.844 h -11.83 l -1.717,-3.844 c -0.152,-0.296 -0.572,-0.591 -1.145,-0.591 h -3.816 c -0.382,0 -0.726,0.295 -0.572,0.591 l 9.73,19.516 c 0.154,0.296 0.572,0.592 0.955,0.592 h 4.961 c 0.381,0 0.801,-0.296 0.954,-0.592 L 8.968,-7.097 C 9.121,-7.393 8.777,-7.688 8.396,-7.688 M -21.79,13.011 h -3.816 c -0.573,0 -0.878,-0.296 -1.145,-0.592 L -36.292,1.183 h -0.19 l -9.541,11.236 c -0.267,0.296 -0.573,0.592 -1.145,0.592 h -3.816 c -0.381,0 -0.763,-0.296 -0.763,-0.592 V -7.097 c 0,-0.296 0.382,-0.591 0.763,-0.591 h 3.626 c 0.38,0 0.762,0.295 0.762,0.591 V 6.209 h 0.192 l 7.823,-8.871 c 0.267,-0.295 0.572,-0.443 0.954,-0.443 h 2.481 c 0.38,0 0.686,0.148 0.953,0.443 l 7.823,8.871 h 0.191 V -7.097 c 0,-0.296 0.381,-0.591 0.764,-0.591 h 3.625 c 0.382,0 0.763,0.295 0.763,0.591 v 19.516 c 0,0.296 -0.381,0.592 -0.763,0.592 m -35.3,0 h -12.784 c -0.382,0 -0.764,-0.296 -0.764,-0.592 V 10.35 c 0,-0.296 0.382,-0.592 0.764,-0.592 h 3.816 V -4.436 h -3.816 c -0.382,0 -0.764,-0.295 -0.764,-0.591 v -2.07 c 0,-0.296 0.382,-0.591 0.764,-0.591 h 12.784 c 0.382,0 0.763,0.295 0.763,0.591 v 2.07 c 0,0.296 -0.381,0.591 -0.763,0.591 h -3.816 V 9.758 h 3.816 c 0.382,0 0.763,0.296 0.763,0.592 v 2.069 c 0,0.296 -0.381,0.592 -0.763,0.592 M -72.546,-4.436 h -14.501 v 16.855 c 0,0.296 -0.382,0.592 -0.764,0.592 h -3.625 c -0.381,0 -0.763,-0.296 -0.763,-0.592 V -7.097 c 0,-0.296 0.382,-0.591 0.763,-0.591 h 18.89 c 0.382,0 0.764,0.295 0.764,0.591 v 2.07 c 0,0.296 -0.382,0.591 -0.764,0.591 m -24.424,1.035 c 0,0 -7.442,-1.478 -11.639,-1.478 -2.29,0 -4.007,1.33 -4.007,3.105 v 8.279 c 0,1.774 1.907,3.253 4.007,3.253 h 10.495 c 0.382,0 0.763,0.296 0.763,0.592 v 2.069 c 0,0.296 -0.381,0.592 -0.763,0.592 h -11.259 c -5.342,0 -8.396,-2.366 -8.396,-6.062 v -9.167 c 0,-3.697 3.054,-6.062 8.396,-6.062 4.961,0 12.403,1.479 12.403,1.479 0.573,0.118 0.764,0.295 0.764,0.591 v 2.218 c 0,0.295 -0.381,0.591 -0.764,0.591 M -129.256,0 l -4.083,8.575 h -0.229 L -137.651,0 Z m 8.968,-7.097 c 0.153,-0.296 -0.191,-0.591 -0.572,-0.591 h -3.817 c -0.572,0 -1.03,0.295 -1.144,0.591 l -1.717,3.844 h -11.831 l -1.717,-3.844 c -0.153,-0.296 -0.572,-0.591 -1.144,-0.591 h -3.817 c -0.382,0 -0.725,0.295 -0.572,0.591 l 9.731,19.516 c 0.153,0.296 0.573,0.592 0.954,0.592 h 4.961 c 0.382,0 0.802,-0.296 0.954,-0.592 z m -27.515,20.108 h -21.562 c -0.382,0 -0.763,-0.296 -0.763,-0.592 V 10.35 c 0,-0.296 0.381,-0.592 0.763,-0.592 h 8.205 V -7.097 c 0,-0.296 0.382,-0.591 0.764,-0.591 h 3.625 c 0.382,0 0.763,0.295 0.763,0.591 V 9.758 h 8.205 c 0.382,0 0.764,0.296 0.764,0.592 v 2.069 c 0,0.296 -0.382,0.592 -0.764,0.592 m -38.926,-5.618 c 0,1.182 1.489,2.365 3.625,2.365 h 9.923 c 0.381,0 0.763,0.296 0.763,0.592 v 2.069 c 0,0.296 -0.382,0.592 -0.763,0.592 h -10.686 c -4.961,0 -8.013,-2.366 -8.013,-5.589 0,-8.014 15.035,-5.205 15.035,-9.788 0,-1.331 -1.679,-2.513 -3.968,-2.513 -4.199,0 -11.64,1.478 -11.64,1.478 -0.381,0 -0.763,-0.296 -0.763,-0.591 V -6.21 c 0,-0.296 0.191,-0.473 0.763,-0.591 0,0 7.441,-1.479 12.403,-1.479 5.304,0 8.395,2.365 8.395,5.914 0,7.984 -15.074,5.175 -15.074,9.759 m -14.692,-0.296 c 0,2.07 -1.336,3.105 -4.007,3.105 h -5.152 c -2.671,0 -4.007,-1.035 -4.007,-3.105 v -8.871 c 0,-2.07 1.336,-3.105 4.007,-3.105 h 5.152 c 2.671,0 4.007,1.035 4.007,3.105 z m 5.151,0.443 v -9.758 c 0,-3.549 -3.052,-5.914 -8.395,-5.914 h -6.678 c -5.343,0 -8.396,2.365 -8.396,5.914 V 7.54 c 0,3.549 3.053,5.915 8.396,5.915 h 6.678 c 5.343,0 8.395,-2.366 8.395,-5.915 M -222.601,-3.992 V -6.21 c 0,-0.296 -0.191,-0.473 -0.763,-0.591 0,0 -7.442,-1.479 -12.403,-1.479 -5.342,0 -8.396,2.365 -8.396,6.062 v 9.167 c 0,3.696 3.054,6.062 8.396,6.062 h 11.258 c 0.382,0 0.763,-0.296 0.763,-0.592 V 10.35 c 0,-0.296 -0.381,-0.592 -0.763,-0.592 h -10.494 c -2.1,0 -4.008,-1.479 -4.008,-3.253 v -8.279 c 0,-1.775 1.718,-3.105 4.008,-3.105 4.197,0 11.639,1.478 11.639,1.478 0.382,0 0.763,-0.296 0.763,-0.591" /></g><g
                 transform="translate(552.6885,300.5713)"
                 id="g168"><path
                   id="path170"
                   style="fill:#050043;fill-opacity:1;fill-rule:nonzero;stroke:none"
                   d="M 0,0 H -0.874 L -4.475,5.529 H -4.511 C -4.463,4.88 -4.438,4.285 -4.438,3.745 V 0 h -0.708 v 6.587 h 0.866 l 3.591,-5.505 h 0.036 c -0.007,0.081 -0.02,0.341 -0.04,0.781 -0.022,0.44 -0.03,0.755 -0.024,0.945 V 6.587 H 0 Z m -12.945,7.228 c 0.144,0.186 0.299,0.411 0.466,0.675 0.167,0.264 0.298,0.494 0.395,0.69 h 0.909 V 8.498 c -0.132,-0.195 -0.328,-0.435 -0.59,-0.721 -0.261,-0.285 -0.488,-0.506 -0.679,-0.662 h -0.501 z M -14.54,3.303 c 0,-0.892 0.19,-1.569 0.569,-2.03 0.381,-0.461 0.933,-0.691 1.657,-0.691 0.73,0 1.281,0.229 1.653,0.689 0.373,0.459 0.558,1.137 0.558,2.032 0,0.886 -0.184,1.558 -0.555,2.016 -0.371,0.458 -0.92,0.687 -1.647,0.687 -0.73,0 -1.285,-0.23 -1.666,-0.691 C -14.35,4.854 -14.54,4.183 -14.54,3.303 m 5.249,0 c 0,-1.054 -0.267,-1.883 -0.8,-2.488 -0.533,-0.603 -1.274,-0.905 -2.223,-0.905 -0.97,0 -1.719,0.297 -2.247,0.89 -0.527,0.594 -0.79,1.43 -0.79,2.512 0,1.072 0.264,1.903 0.793,2.494 0.529,0.59 1.28,0.885 2.253,0.885 0.946,0 1.685,-0.3 2.216,-0.901 0.532,-0.601 0.798,-1.43 0.798,-2.487 m -10.966,3.284 h 0.766 V 0 h -0.766 z m -5.677,-0.59 c -0.724,0 -1.295,-0.241 -1.714,-0.723 -0.419,-0.482 -0.629,-1.142 -0.629,-1.98 0,-0.862 0.202,-1.528 0.606,-1.998 0.404,-0.47 0.981,-0.705 1.728,-0.705 0.46,0 0.984,0.082 1.573,0.247 V 0.167 c -0.457,-0.171 -1.021,-0.257 -1.691,-0.257 -0.969,0 -1.717,0.295 -2.245,0.883 -0.527,0.589 -0.792,1.426 -0.792,2.51 0,0.679 0.128,1.274 0.381,1.784 0.254,0.511 0.621,0.904 1.1,1.181 0.479,0.276 1.043,0.415 1.692,0.415 0.691,0 1.295,-0.127 1.812,-0.379 l -0.324,-0.658 c -0.5,0.234 -0.999,0.351 -1.497,0.351 m -8.498,0 c -0.723,0 -1.296,-0.241 -1.714,-0.723 -0.418,-0.482 -0.628,-1.142 -0.628,-1.98 0,-0.862 0.201,-1.528 0.606,-1.998 0.403,-0.47 0.98,-0.705 1.728,-0.705 0.46,0 0.983,0.082 1.572,0.247 V 0.167 c -0.456,-0.171 -1.02,-0.257 -1.69,-0.257 -0.969,0 -1.718,0.295 -2.246,0.883 -0.527,0.589 -0.791,1.426 -0.791,2.51 0,0.679 0.127,1.274 0.381,1.784 0.254,0.511 0.62,0.904 1.1,1.181 0.479,0.276 1.043,0.415 1.692,0.415 0.691,0 1.294,-0.127 1.811,-0.379 l -0.325,-0.658 c -0.499,0.234 -0.997,0.351 -1.496,0.351 m -8.254,-3.212 -0.765,2.041 c -0.1,0.258 -0.201,0.575 -0.307,0.95 -0.066,-0.288 -0.161,-0.605 -0.284,-0.95 L -44.816,2.785 Z M -41.627,0 -42.446,2.095 h -2.641 L -45.897,0 h -0.776 l 2.604,6.615 h 0.644 L -40.834,0 Z M -52.44,0 h -0.766 v 6.587 h 3.673 v -0.68 h -2.907 v -2.41 h 2.73 V 2.816 h -2.73 z m -4.902,0 h -3.672 v 6.587 h 3.672 v -0.68 h -2.906 V 3.785 h 2.73 V 3.109 h -2.73 V 0.685 h 2.906 z m -11.137,0 v 6.587 h 0.765 V 0.694 h 2.906 V 0 Z m -5.435,2.785 -0.766,2.041 c -0.099,0.258 -0.201,0.575 -0.305,0.95 -0.067,-0.288 -0.161,-0.605 -0.285,-0.95 l -0.775,-2.041 z m 1.06,-2.785 -0.82,2.095 h -2.641 L -77.125,0 H -77.9 l 2.603,6.615 h 0.645 L -72.062,0 Z m -9.818,5.997 c -0.724,0 -1.296,-0.241 -1.715,-0.723 -0.419,-0.482 -0.629,-1.142 -0.629,-1.98 0,-0.862 0.203,-1.528 0.607,-1.998 0.404,-0.47 0.979,-0.705 1.727,-0.705 0.46,0 0.984,0.082 1.574,0.247 V 0.167 c -0.457,-0.171 -1.02,-0.257 -1.691,-0.257 -0.97,0 -1.719,0.295 -2.245,0.883 -0.527,0.589 -0.791,1.426 -0.791,2.51 0,0.679 0.127,1.274 0.381,1.784 0.254,0.511 0.62,0.904 1.1,1.181 0.478,0.276 1.042,0.415 1.691,0.415 0.69,0 1.295,-0.127 1.81,-0.379 l -0.323,-0.658 c -0.499,0.234 -0.998,0.351 -1.496,0.351 M -99.018,5.276 c 0,-0.207 0.054,-0.404 0.163,-0.592 0.107,-0.188 0.292,-0.414 0.554,-0.678 0.387,0.225 0.656,0.433 0.809,0.624 0.151,0.19 0.226,0.411 0.226,0.66 0,0.231 -0.076,0.419 -0.231,0.565 -0.155,0.146 -0.362,0.219 -0.62,0.219 -0.268,0 -0.485,-0.073 -0.651,-0.216 -0.167,-0.144 -0.25,-0.338 -0.25,-0.582 m 0.699,-4.694 c 0.723,0 1.324,0.231 1.801,0.693 l -1.968,1.911 c -0.333,-0.205 -0.57,-0.373 -0.707,-0.507 -0.139,-0.134 -0.241,-0.278 -0.307,-0.43 -0.066,-0.154 -0.1,-0.328 -0.1,-0.523 0,-0.351 0.118,-0.63 0.35,-0.836 0.232,-0.205 0.543,-0.308 0.931,-0.308 m -2.056,1.126 c 0,0.391 0.105,0.736 0.313,1.036 0.209,0.3 0.584,0.604 1.124,0.91 -0.254,0.286 -0.428,0.502 -0.519,0.649 -0.092,0.148 -0.165,0.301 -0.219,0.46 -0.054,0.159 -0.081,0.324 -0.081,0.496 0,0.45 0.148,0.801 0.441,1.053 0.295,0.253 0.705,0.379 1.23,0.379 0.486,0 0.87,-0.125 1.149,-0.376 0.281,-0.251 0.419,-0.6 0.419,-1.048 0,-0.321 -0.101,-0.618 -0.306,-0.89 -0.203,-0.272 -0.542,-0.547 -1.014,-0.826 l 1.834,-1.762 c 0.168,0.187 0.303,0.405 0.404,0.655 0.1,0.251 0.185,0.526 0.254,0.823 h 0.757 C -94.793,2.408 -95.102,1.756 -95.512,1.312 L -94.166,0 h -1.031 l -0.834,0.802 c -0.354,-0.318 -0.715,-0.546 -1.081,-0.685 -0.367,-0.138 -0.775,-0.207 -1.226,-0.207 -0.645,0 -1.146,0.159 -1.502,0.478 -0.357,0.318 -0.535,0.758 -0.535,1.32 m -14.07,1.595 c 0,-0.892 0.19,-1.569 0.57,-2.03 0.38,-0.461 0.932,-0.691 1.656,-0.691 0.731,0 1.281,0.229 1.654,0.689 0.372,0.459 0.558,1.137 0.558,2.032 0,0.886 -0.185,1.558 -0.556,2.016 -0.372,0.458 -0.919,0.687 -1.646,0.687 -0.73,0 -1.286,-0.23 -1.666,-0.691 -0.38,-0.461 -0.57,-1.132 -0.57,-2.012 m 5.25,0 c 0,-1.054 -0.267,-1.883 -0.801,-2.488 -0.532,-0.603 -1.274,-0.905 -2.223,-0.905 -0.97,0 -1.719,0.297 -2.246,0.89 -0.527,0.594 -0.791,1.43 -0.791,2.512 0,1.072 0.264,1.903 0.793,2.494 0.529,0.59 1.279,0.885 2.254,0.885 0.945,0 1.685,-0.3 2.216,-0.901 0.532,-0.601 0.798,-1.43 0.798,-2.487 M -119.87,3.33 c 0,0.859 -0.216,1.506 -0.648,1.942 -0.43,0.435 -1.071,0.653 -1.92,0.653 h -1.114 V 0.663 h 0.934 c 0.912,0 1.599,0.224 2.058,0.673 0.459,0.449 0.69,1.114 0.69,1.994 m 0.81,0.027 c 0,-1.087 -0.294,-1.919 -0.884,-2.494 C -120.536,0.288 -121.385,0 -122.493,0 h -1.824 v 6.587 h 2.018 c 1.025,0 1.82,-0.283 2.388,-0.851 0.568,-0.568 0.851,-1.361 0.851,-2.379 m -10.691,-0.572 -0.766,2.041 c -0.099,0.258 -0.201,0.575 -0.306,0.95 -0.067,-0.288 -0.16,-0.605 -0.284,-0.95 l -0.775,-2.041 z m 1.059,-2.785 -0.82,2.095 h -2.64 L -132.964,0 h -0.774 l 2.603,6.615 h 0.645 L -127.899,0 Z m -8.628,0 h -0.874 l -3.6,5.529 h -0.038 c 0.049,-0.649 0.073,-1.244 0.073,-1.784 V 0 h -0.707 v 6.587 h 0.865 l 3.591,-5.505 h 0.036 c -0.005,0.081 -0.019,0.341 -0.04,0.781 -0.021,0.44 -0.029,0.755 -0.023,0.945 v 3.779 h 0.717 z m -14.541,3.303 c 0,-0.892 0.191,-1.569 0.57,-2.03 0.38,-0.461 0.932,-0.691 1.656,-0.691 0.73,0 1.281,0.229 1.654,0.689 0.372,0.459 0.559,1.137 0.559,2.032 0,0.886 -0.186,1.558 -0.557,2.016 -0.371,0.458 -0.92,0.687 -1.646,0.687 -0.731,0 -1.286,-0.23 -1.666,-0.691 -0.379,-0.461 -0.57,-1.132 -0.57,-2.012 m 5.25,0 c 0,-1.054 -0.267,-1.883 -0.801,-2.488 -0.532,-0.603 -1.274,-0.905 -2.223,-0.905 -0.97,0 -1.719,0.297 -2.245,0.89 -0.528,0.594 -0.791,1.43 -0.791,2.512 0,1.072 0.263,1.903 0.793,2.494 0.528,0.59 1.279,0.885 2.253,0.885 0.945,0 1.684,-0.3 2.216,-0.901 0.532,-0.601 0.798,-1.43 0.798,-2.487 m -10.967,3.284 h 0.766 V 0 h -0.766 z m -5.676,-0.59 c -0.725,0 -1.296,-0.241 -1.715,-0.723 -0.419,-0.482 -0.629,-1.142 -0.629,-1.98 0,-0.862 0.202,-1.528 0.606,-1.998 0.404,-0.47 0.98,-0.705 1.729,-0.705 0.459,0 0.983,0.082 1.572,0.247 V 0.167 c -0.457,-0.171 -1.019,-0.257 -1.689,-0.257 -0.971,0 -1.72,0.295 -2.246,0.883 -0.528,0.589 -0.791,1.426 -0.791,2.51 0,0.679 0.125,1.274 0.38,1.784 0.254,0.511 0.62,0.904 1.1,1.181 0.479,0.276 1.042,0.415 1.691,0.415 0.691,0 1.294,-0.127 1.812,-0.379 l -0.324,-0.658 c -0.499,0.234 -0.997,0.351 -1.496,0.351 m -8.07,0.59 h 0.766 V 0 h -0.766 z m -4.957,-3.257 c 0,0.859 -0.215,1.506 -0.646,1.942 -0.431,0.435 -1.072,0.653 -1.922,0.653 h -1.112 V 0.663 h 0.932 c 0.913,0 1.6,0.224 2.06,0.673 0.459,0.449 0.688,1.114 0.688,1.994 m 0.812,0.027 c 0,-1.087 -0.295,-1.919 -0.886,-2.494 C -176.945,0.288 -177.794,0 -178.903,0 h -1.825 v 6.587 h 2.02 c 1.024,0 1.82,-0.283 2.387,-0.851 0.568,-0.568 0.852,-1.361 0.852,-2.379 M -185.214,0 h -0.875 l -3.6,5.529 h -0.036 c 0.048,-0.649 0.072,-1.244 0.072,-1.784 V 0 h -0.708 v 6.587 h 0.865 l 3.592,-5.505 h 0.036 c -0.007,0.081 -0.019,0.341 -0.041,0.781 -0.021,0.44 -0.028,0.755 -0.022,0.945 v 3.779 h 0.717 z m -14.54,3.303 c 0,-0.892 0.189,-1.569 0.57,-2.03 0.38,-0.461 0.932,-0.691 1.655,-0.691 0.731,0 1.281,0.229 1.654,0.689 0.373,0.459 0.559,1.137 0.559,2.032 0,0.886 -0.185,1.558 -0.557,2.016 -0.371,0.458 -0.919,0.687 -1.647,0.687 -0.73,0 -1.284,-0.23 -1.664,-0.691 -0.381,-0.461 -0.57,-1.132 -0.57,-2.012 m 5.249,0 c 0,-1.054 -0.267,-1.883 -0.8,-2.488 -0.533,-0.603 -1.275,-0.905 -2.224,-0.905 -0.97,0 -1.719,0.297 -2.246,0.89 -0.527,0.594 -0.791,1.43 -0.791,2.512 0,1.072 0.265,1.903 0.793,2.494 0.529,0.59 1.28,0.885 2.253,0.885 0.946,0 1.686,-0.3 2.217,-0.901 0.532,-0.601 0.798,-1.43 0.798,-2.487 M -205.9,5.997 c -0.724,0 -1.295,-0.241 -1.714,-0.723 -0.42,-0.482 -0.629,-1.142 -0.629,-1.98 0,-0.862 0.202,-1.528 0.607,-1.998 0.403,-0.47 0.979,-0.705 1.727,-0.705 0.46,0 0.984,0.082 1.573,0.247 V 0.167 c -0.456,-0.171 -1.02,-0.257 -1.69,-0.257 -0.971,0 -1.719,0.295 -2.246,0.883 -0.527,0.589 -0.791,1.426 -0.791,2.51 0,0.679 0.127,1.274 0.381,1.784 0.254,0.511 0.62,0.904 1.099,1.181 0.479,0.276 1.043,0.415 1.692,0.415 0.691,0 1.295,-0.127 1.811,-0.379 l -0.324,-0.658 c -0.499,0.234 -0.997,0.351 -1.496,0.351 m -8.254,-3.212 -0.765,2.041 c -0.1,0.258 -0.203,0.575 -0.307,0.95 -0.066,-0.288 -0.161,-0.605 -0.284,-0.95 l -0.776,-2.041 z m 1.059,-2.785 -0.82,2.095 h -2.64 L -217.367,0 h -0.774 l 2.603,6.615 h 0.645 L -212.302,0 Z m -13.35,0 h -3.672 v 6.587 h 3.672 v -0.68 h -2.906 V 3.785 h 2.73 V 3.109 h -2.73 V 0.685 h 2.906 z m -11.286,3.397 h 1.05 c 0.541,0 0.937,0.108 1.189,0.323 0.252,0.215 0.378,0.537 0.378,0.966 0,0.436 -0.128,0.75 -0.385,0.941 -0.256,0.193 -0.668,0.289 -1.237,0.289 h -0.995 z m 0,-0.657 V 0 h -0.767 v 6.587 h 1.808 c 0.808,0 1.404,-0.154 1.79,-0.463 0.387,-0.31 0.58,-0.775 0.58,-1.397 0,-0.872 -0.442,-1.46 -1.325,-1.767 L -233.856,0 h -0.906 l -1.595,2.74 z m -6.016,3.847 h 0.767 V 0 h -0.767 z m -5.433,-3.802 -0.766,2.041 c -0.098,0.258 -0.201,0.575 -0.305,0.95 -0.067,-0.288 -0.162,-0.605 -0.285,-0.95 l -0.775,-2.041 z m 1.059,-2.785 -0.82,2.095 h -2.64 L -252.392,0 h -0.775 l 2.604,6.615 h 0.645 L -247.328,0 Z" /></g></g></g></g></g></g></g></svg>
